<svg width="16" height="16" viewBox="0 0 16 16" fill="none" xmlns="http://www.w3.org/2000/svg">
<path fill-rule="evenodd" clip-rule="evenodd" d="M7.33312 2.12651C7.37917 1.98048 7.47057 1.85293 7.59406 1.7624C7.71754 1.67186 7.86667 1.62305 8.01979 1.62305C8.1729 1.62305 8.32203 1.67186 8.44552 1.7624C8.569 1.85293 8.6604 1.98048 8.70645 2.12651L9.94645 5.93984H13.9465C14.105 5.93384 14.2612 5.97993 14.3912 6.07107C14.5211 6.1622 14.6176 6.29336 14.666 6.44452C14.7144 6.59567 14.7119 6.75851 14.659 6.90814C14.6062 7.05778 14.5057 7.18598 14.3731 7.27317L11.1265 9.62651L12.3665 13.4465C12.4155 13.592 12.4167 13.7494 12.37 13.8957C12.3232 14.0419 12.2309 14.1694 12.1066 14.2595C11.9823 14.3496 11.8324 14.3976 11.6788 14.3964C11.5253 14.3953 11.3761 14.3451 11.2531 14.2532L7.99979 11.8732L4.75312 14.2332C4.63012 14.3251 4.48096 14.3753 4.32741 14.3764C4.17387 14.3776 4.02398 14.3296 3.89963 14.2395C3.77529 14.1494 3.68301 14.0219 3.63626 13.8757C3.58951 13.7294 3.59075 13.572 3.63979 13.4265L4.87979 9.60651L1.63312 7.25317C1.50051 7.16599 1.40009 7.03778 1.3472 6.88814C1.29431 6.73851 1.29187 6.57567 1.34024 6.42452C1.38861 6.27336 1.48513 6.1422 1.61506 6.05107C1.745 5.95993 1.90119 5.91384 2.05979 5.91984H6.05979L7.33312 2.12651Z" stroke="#EBEBEB" stroke-width="1.5" stroke-linecap="round" stroke-linejoin="round"/>
</svg>
